<?xml version="1.0" encoding="utf-8"?>
<!-- Generator: Adobe Illustrator 19.1.0, SVG Export Plug-In . SVG Version: 6.00 Build 0)  -->
<!DOCTYPE svg PUBLIC "-//W3C//DTD SVG 1.1//EN" "http://www.w3.org/Graphics/SVG/1.1/DTD/svg11.dtd">
<svg version="1.1" id="Layer_1" xmlns="http://www.w3.org/2000/svg" xmlns:xlink="http://www.w3.org/1999/xlink" x="0px" y="0px"
	 viewBox="0 0 65.0143 36.8291" enable-background="new 0 0 65.0143 36.8291" xml:space="preserve">
<g>
	<path fill="#88BD40" d="M41.8745,3.8555h-3.2793l-6.0854,8.6919l-6.0659-8.688h-3.2983l-0.0049,19.7998h18.7339V3.8555z
		 M26.4511,20.8897V8.6983l6.0098,8.5126l0.0488,0.0694l6.058-8.582v12.1913H26.4511z"/>
	<polygon fill="#88BD40" points="6.8477,31.3799 5.5635,27.6436 3.8555,27.6436 3.8555,27.8623 4.6485,27.8623 4.6485,32.624 
		3.8555,32.624 3.8555,32.8428 5.6665,32.8428 5.6665,32.624 4.8745,32.624 4.8745,28.208 6.5274,32.9736 8.1876,28.1611 
		8.1876,32.624 7.3955,32.624 7.3955,32.8428 9.812,32.8428 9.812,32.624 9.0201,32.624 9.0201,27.8623 9.812,27.8623 
		9.812,27.6436 8.1328,27.6436 	"/>
	<path fill="#88BD40" d="M13.273,27.5537l-0.0146-0.039h-0.2535l-1.9267,5.1093h-0.6465v0.2188h1.6533V32.624h-0.7651l0.7041-1.8632
		h1.5737l0.7036,1.8632h-0.7656v0.2188h2.3174V32.624h-0.6538L13.273,27.5537z M12.1118,30.542l0.6982-1.8496l0.6992,1.8496H12.1118
		z"/>
	<polygon fill="#88BD40" points="16.6411,27.8623 17.4332,27.8623 17.4332,32.624 16.6411,32.624 16.6411,32.8428 19.0582,32.8428 
		19.0582,32.624 18.2661,32.624 18.2661,27.8623 19.0582,27.8623 19.0582,27.6436 16.6411,27.6436 	"/>
	<path fill="#88BD40" d="M23.1928,30.1807c-0.1357-0.0977-0.2758-0.1719-0.4184-0.2207c-0.1387-0.0489-0.2534-0.086-0.3443-0.1153
		l-0.8636-0.2714c-0.1206-0.0372-0.2422-0.0801-0.3623-0.1309c-0.1172-0.0469-0.2232-0.1074-0.3156-0.1777
		c-0.0903-0.0684-0.1655-0.1543-0.2236-0.2538c-0.0562-0.0977-0.085-0.2188-0.085-0.3575c0-0.1797,0.0371-0.3261,0.1094-0.4394
		c0.0737-0.1153,0.1665-0.211,0.2778-0.2813c0.1124-0.0722,0.2349-0.125,0.3667-0.1523c0.1329-0.0313,0.2549-0.0469,0.3648-0.0469
		c0.1943,0,0.3677,0.0352,0.5127,0.1055c0.147,0.0703,0.2744,0.164,0.3774,0.2793c0.1045,0.1152,0.1909,0.2519,0.2574,0.4043
		c0.0668,0.1543,0.1147,0.3164,0.142,0.4824l0.0079,0.0488h0.1967v-1.4101h-0.1948l-0.0171,0.0293
		c-0.0473,0.0839-0.0679,0.1035-0.0742,0.1074c0,0.0019-0.0171,0.0137-0.0884,0.0137c-0.0576,0-0.1152-0.0137-0.1714-0.0391
		l-0.2182-0.0957c-0.0835-0.0371-0.1841-0.0703-0.2984-0.0996c-0.1152-0.0293-0.2612-0.0449-0.4316-0.0449
		c-0.2354,0-0.4546,0.041-0.6533,0.1191c-0.1996,0.0801-0.3741,0.1895-0.5157,0.3262c-0.1435,0.1386-0.2558,0.3047-0.3344,0.4941
		c-0.0791,0.1895-0.1192,0.3985-0.1192,0.6192c0,0.3437,0.1055,0.623,0.3135,0.8281c0.2036,0.2012,0.5064,0.3633,0.8994,0.4844
		l0.8213,0.25c0.0962,0.0273,0.1997,0.0683,0.3086,0.1191c0.1069,0.0488,0.207,0.1152,0.2969,0.1934
		c0.0879,0.0781,0.1636,0.1738,0.2212,0.287c0.0576,0.1093,0.0864,0.2441,0.0864,0.4005c0,0.1074-0.0186,0.2285-0.0542,0.3574
		c-0.0361,0.1289-0.0996,0.248-0.1895,0.3574c-0.0898,0.1094-0.2114,0.2012-0.3637,0.2715
		c-0.1537,0.0722-0.3545,0.1094-0.5967,0.1094c-0.0894,0-0.1841-0.002-0.2861-0.0059c-0.0967-0.0059-0.2012-0.0215-0.3087-0.0488
		c-0.1075-0.0274-0.2129-0.0723-0.3174-0.1309c-0.1026-0.0587-0.2036-0.1426-0.2984-0.25c-0.0961-0.1113-0.1855-0.252-0.2661-0.4219
		c-0.08-0.1699-0.1474-0.3847-0.1987-0.6367l-0.0093-0.0469h-0.187v1.6524h0.207l0.0152-0.0371
		c0.0161-0.041,0.0351-0.0723,0.0561-0.0957c0.0049-0.0059,0.0274-0.0235,0.1026-0.0235c0.0737,0,0.1635,0.0176,0.2661,0.0547
		c0.1099,0.0371,0.2134,0.0703,0.3096,0.0996c0.0849,0.0254,0.1591,0.043,0.2275,0.0547c0.0674,0.0137,0.1348,0.0235,0.2021,0.0332
		c0.0689,0.0098,0.1426,0.0156,0.2203,0.0176c0.076,0.002,0.165,0.0039,0.2651,0.0039c0.2871,0,0.5503-0.0469,0.7793-0.1426
		c0.23-0.0957,0.4282-0.2246,0.5898-0.3847c0.1621-0.1582,0.2886-0.3457,0.3736-0.5547c0.0869-0.209,0.1299-0.4317,0.1299-0.6602
		c0-0.2538-0.0494-0.4648-0.1475-0.6308C23.4483,30.4131,23.3297,30.2803,23.1928,30.1807z"/>
	<polygon fill="#88BD40" points="33.6822,27.8623 34.4742,27.8623 34.4742,31.4072 32.1411,27.6436 30.5211,27.6436 
		30.5211,27.8623 31.3131,27.8623 31.3131,32.624 30.5211,32.624 30.5211,32.8428 32.3311,32.8428 32.3311,32.624 31.5391,32.624 
		31.5391,28.2803 34.4478,32.9151 34.4654,32.9443 34.7007,32.9443 34.7007,27.8623 35.4926,27.8623 35.4926,27.6436 
		33.6822,27.6436 	"/>
	<polygon fill="#88BD40" points="40.9234,31.3799 39.6382,27.6436 37.9312,27.6436 37.9312,27.8623 38.7232,27.8623 38.7232,32.624 
		37.9312,32.624 37.9312,32.8428 39.7408,32.8428 39.7408,32.624 38.9488,32.624 38.9488,28.208 40.6021,32.9736 42.2623,28.1592 
		42.2623,32.624 41.4702,32.624 41.4702,32.8428 43.8873,32.8428 43.8873,32.624 43.0952,32.624 43.0952,27.8623 43.8873,27.8623 
		43.8873,27.6436 42.2086,27.6436 	"/>
	<path fill="#88BD40" d="M48.9077,31.2139c-0.0137,0.1054-0.0479,0.2402-0.0987,0.4043c-0.0498,0.1582-0.1279,0.3144-0.2334,0.4648
		c-0.1054,0.1465-0.2421,0.2755-0.4091,0.3828c-0.1621,0.1055-0.3712,0.1582-0.6202,0.1582h-1.289v-2.457h0.5176
		c0.1611,0,0.291,0.0273,0.3896,0.082c0.0977,0.0547,0.1768,0.1289,0.2354,0.2207c0.0605,0.0938,0.1084,0.2032,0.1425,0.3262
		c0.0352,0.127,0.0694,0.2598,0.1036,0.3965l0.0107,0.0449h0.1846v-2.3379h-0.1846l-0.0107,0.0449
		c-0.0528,0.211-0.1055,0.3848-0.1592,0.5176c-0.0508,0.127-0.1133,0.2285-0.1856,0.3008
		c-0.0703,0.0703-0.1562,0.1191-0.2549,0.1445c-0.1044,0.0274-0.2333,0.0411-0.3847,0.0411h-0.4043v-2.0861h1.125
		c0.1865,0,0.3486,0.0236,0.4795,0.0684c0.1299,0.0449,0.2422,0.1133,0.3349,0.2031c0.0948,0.0938,0.1768,0.207,0.2461,0.3418
		c0.0684,0.1367,0.1348,0.2988,0.1953,0.4805l0.0137,0.041h0.1817v-1.3535h-4.2012v0.2187h0.792v4.7617h-0.792v0.2188h4.4726
		v-1.6817h-0.1914L48.9077,31.2139z"/>
	<polygon fill="#88BD40" points="52.9771,31.3799 51.692,27.6436 49.9849,27.6436 49.9849,27.8623 50.7769,27.8623 50.7769,32.624 
		49.9849,32.624 49.9849,32.8428 51.7954,32.8428 51.7954,32.624 51.0034,32.624 51.0034,28.208 52.6558,32.9736 54.317,28.1592 
		54.317,32.624 53.524,32.624 53.524,32.8428 55.9409,32.8428 55.9409,32.624 55.149,32.624 55.149,27.8623 55.9409,27.8623 
		55.9409,27.6436 54.2613,27.6436 	"/>
	<path fill="#88BD40" d="M60.9683,31.1611l-0.0068,0.0528c-0.0137,0.1054-0.0469,0.2402-0.0977,0.4043
		c-0.0497,0.1582-0.1288,0.3144-0.2343,0.4648c-0.1045,0.1465-0.2422,0.2755-0.4082,0.3828
		c-0.1631,0.1055-0.3721,0.1582-0.6211,0.1582h-1.2891v-2.457h0.5186c0.1601,0,0.29,0.0273,0.3886,0.082
		c0.0977,0.0547,0.1768,0.1289,0.2354,0.2207c0.0605,0.0938,0.1094,0.2032,0.1426,0.3262c0.0351,0.127,0.0693,0.2598,0.1025,0.3965
		l0.0117,0.0449h0.1846v-2.3379h-0.1846l-0.0107,0.0449c-0.0518,0.211-0.1055,0.3848-0.1582,0.5176
		c-0.0518,0.127-0.1143,0.2285-0.1866,0.3008c-0.0703,0.0703-0.1562,0.1191-0.2548,0.1445
		c-0.1045,0.0274-0.2334,0.0411-0.3848,0.0411h-0.4043v-2.0861h1.125c0.1875,0,0.3486,0.0236,0.4805,0.0684
		c0.1288,0.0449,0.2411,0.1133,0.3349,0.2031c0.0948,0.0938,0.1768,0.209,0.2451,0.3418c0.0684,0.1367,0.1358,0.2988,0.1963,0.4805
		l0.0137,0.041h0.1807v-1.3535h-4.2012v0.2187h0.792v4.7617h-0.792v0.2188h4.4727v-1.6817H60.9683z"/>
	<path fill="#88BD40" d="M47.6245,26.0498c0.0244-0.0215,0.0635-0.0663,0.0449-0.1133c-0.0078-0.0195-0.0273-0.0488-0.085-0.0488
		h-0.6122c-0.0986,0-0.1513,0.0586-0.1671,0.0938l-0.5351,1.2207h0.2295L47.6245,26.0498z"/>
	<path fill="#88BD40" d="M59.6783,26.0498c0.0244-0.0215,0.0635-0.0663,0.0449-0.1133c-0.0078-0.0195-0.0273-0.0488-0.084-0.0488
		h-0.6123c-0.0996,0-0.1523,0.0586-0.167,0.0938l-0.5361,1.2207h0.2295L59.6783,26.0498z"/>
	<path fill="#88BD40" d="M28.9785,28.2959c-0.2373-0.2422-0.5103-0.4337-0.8125-0.5723c-0.5894-0.2675-1.2305-0.2851-1.8521,0
		c-0.2998,0.1387-0.5728,0.3301-0.8134,0.5723c-0.2388,0.2422-0.4375,0.5312-0.5894,0.8594c-0.1528,0.3301-0.23,0.6933-0.23,1.082
		c0,0.3477,0.0645,0.6895,0.1895,1.0156c0.125,0.3262,0.3027,0.6172,0.5287,0.8692c0.2246,0.248,0.4961,0.4512,0.8066,0.6015
		c0.3111,0.1504,0.6538,0.2266,1.0181,0.2266c0.355,0,0.6919-0.0781,1.001-0.2344c0.3061-0.1543,0.5781-0.3613,0.8056-0.6132
		c0.2271-0.25,0.4082-0.543,0.5396-0.8672c0.1299-0.3223,0.1964-0.6602,0.1964-0.9981c0-0.3887-0.0728-0.7519-0.2155-1.0801
		C29.4092,28.8272,29.2159,28.5401,28.9785,28.2959z M25.7056,31.3467c-0.0562-0.3145-0.0849-0.6875-0.0849-1.1094
		c0-0.3262,0.0219-0.6426,0.0644-0.9453c0.0415-0.2988,0.1216-0.5684,0.2403-0.8027c0.1157-0.2285,0.2793-0.4141,0.4858-0.5508
		c0.2051-0.1348,0.4795-0.2051,0.813-0.2051s0.6069,0.0703,0.8125,0.2051c0.1621,0.1071,0.289,0.2522,0.3959,0.4163l-2.5482,3.5614
		C25.809,31.7484,25.7447,31.5636,25.7056,31.3467z M28.7422,31.3467c-0.0551,0.3086-0.1484,0.5703-0.2773,0.7773
		c-0.1265,0.2032-0.2925,0.3575-0.4932,0.4571c-0.2016,0.0996-0.4536,0.1504-0.7475,0.1504c-0.2993,0-0.5518-0.0508-0.7515-0.1504
		c-0.1517-0.076-0.2764-0.1927-0.3867-0.3303l2.5274-3.5331c0.0664,0.1779,0.1213,0.366,0.1502,0.5743
		c0.0421,0.3027,0.0635,0.6191,0.0635,0.9453C28.8272,30.6611,28.7984,31.0342,28.7422,31.3467z"/>
</g>
<g>
</g>
<g>
</g>
<g>
</g>
<g>
</g>
<g>
</g>
<g>
</g>
</svg>
