<?xml version="1.0" encoding="utf-8"?>
<!-- Generator: Adobe Illustrator 18.1.1, SVG Export Plug-In . SVG Version: 6.00 Build 0)  -->
<!DOCTYPE svg PUBLIC "-//W3C//DTD SVG 1.1//EN" "http://www.w3.org/Graphics/SVG/1.1/DTD/svg11.dtd">
<svg version="1.1" id="Layer_1" xmlns="http://www.w3.org/2000/svg" xmlns:xlink="http://www.w3.org/1999/xlink" x="0px" y="0px"
	 viewBox="0 0 97 59.8" enable-background="new 0 0 97 59.8" xml:space="preserve">
<g>
	<g>
		<path fill="#88bc08" d="M56.2,9.3l-8.6,12.2L39.1,9.3h-4.5v23.8h0v3.7h26.1v-3.7V9.3H56.2z M39.1,33.2V15.8l8.6,12.1l8.6-12.1
			v17.4H39.1z"/>
	</g>
	<g>
		<g>
			<path fill="#88bc08" d="M7.6,49.6h1.1v-6.8H7.6v-0.1h2.2l1.8,5.4h0l1.8-5.4h2.2v0.1h-1.1v6.8h1.1v0.1h-3.2v-0.1h1.1v-6.8h0
				l-2.4,6.9l-2.4-6.9h0v6.7H10v0.1H7.6V49.6z"/>
		</g>
		<g>
			<path fill="#88bc08" d="M16.8,49.6h0.9l2.7-7.2h0.2l2.7,7.2h0.9v0.1h-3.1v-0.1h1.1l-1-2.8h-2.3l-1,2.8H19v0.1h-2.1V49.6z
				 M20.1,43.8L19,46.7h2.2L20.1,43.8z"/>
		</g>
		<g>
			<path fill="#88bc08" d="M25.5,49.6h1.1v-6.8h-1.1v-0.1h3.2v0.1h-1.1v6.8h1.1v0.1h-3.2V49.6z"/>
		</g>
		<g>
			<path fill="#88bc08" d="M30.1,47.6h0.1c0.1,0.4,0.2,0.7,0.3,0.9c0.1,0.2,0.2,0.4,0.4,0.6c0.1,0.2,0.3,0.3,0.4,0.4
				c0.2,0.1,0.3,0.2,0.5,0.2c0.2,0,0.3,0.1,0.5,0.1c0.1,0,0.3,0,0.4,0c0.4,0,0.6-0.1,0.9-0.2c0.2-0.1,0.4-0.2,0.5-0.4
				c0.1-0.2,0.2-0.3,0.3-0.5c0.1-0.2,0.1-0.4,0.1-0.5c0-0.2,0-0.4-0.1-0.6c-0.1-0.2-0.2-0.3-0.3-0.4c-0.1-0.1-0.3-0.2-0.4-0.3
				c-0.2-0.1-0.3-0.1-0.4-0.2L32,46.3c-0.5-0.2-0.9-0.4-1.2-0.7c-0.3-0.3-0.4-0.6-0.4-1.1c0-0.3,0.1-0.6,0.2-0.8
				c0.1-0.3,0.3-0.5,0.4-0.7c0.2-0.2,0.4-0.3,0.7-0.4c0.3-0.1,0.6-0.2,0.9-0.2c0.2,0,0.4,0,0.6,0.1c0.2,0,0.3,0.1,0.4,0.1
				c0.1,0,0.2,0.1,0.3,0.1c0.1,0,0.2,0.1,0.3,0.1c0.1,0,0.1,0,0.2,0c0,0,0.1-0.1,0.1-0.2h0.1v1.8h-0.1c0-0.2-0.1-0.5-0.2-0.7
				c-0.1-0.2-0.2-0.4-0.4-0.6c-0.2-0.2-0.3-0.3-0.6-0.4c-0.2-0.1-0.5-0.2-0.8-0.2c-0.2,0-0.3,0-0.5,0.1c-0.2,0-0.4,0.1-0.5,0.2
				c-0.2,0.1-0.3,0.2-0.4,0.4c-0.1,0.2-0.2,0.4-0.2,0.7c0,0.2,0,0.4,0.1,0.5c0.1,0.1,0.2,0.3,0.3,0.4c0.1,0.1,0.3,0.2,0.5,0.3
				c0.2,0.1,0.3,0.1,0.5,0.2l1.2,0.4c0.1,0,0.3,0.1,0.5,0.2c0.2,0.1,0.4,0.2,0.6,0.3c0.2,0.1,0.3,0.3,0.5,0.5
				c0.1,0.2,0.2,0.5,0.2,0.8c0,0.3-0.1,0.6-0.2,0.9c-0.1,0.3-0.3,0.5-0.5,0.7c-0.2,0.2-0.5,0.4-0.8,0.5c-0.3,0.1-0.7,0.2-1.1,0.2
				c-0.1,0-0.3,0-0.4,0c-0.1,0-0.2,0-0.3,0c-0.1,0-0.2,0-0.3,0c-0.1,0-0.2,0-0.3-0.1c-0.1,0-0.3-0.1-0.4-0.1
				c-0.2-0.1-0.3-0.1-0.4-0.1c-0.1,0-0.2,0-0.2,0.1c0,0-0.1,0.1-0.1,0.2h-0.1V47.6z"/>
		</g>
		<g>
			<path fill="#88bc08" d="M36.8,46.2c0-0.5,0.1-1,0.3-1.5c0.2-0.5,0.5-0.8,0.8-1.2c0.3-0.3,0.7-0.6,1.1-0.8
				c0.4-0.2,0.8-0.3,1.2-0.3c0.4,0,0.9,0.1,1.3,0.3c0.4,0.2,0.8,0.5,1.1,0.8c0.3,0.3,0.6,0.7,0.8,1.2c0.2,0.5,0.3,0.9,0.3,1.5
				c0,0.5-0.1,0.9-0.3,1.4c-0.2,0.4-0.4,0.8-0.7,1.2c-0.3,0.3-0.7,0.6-1.1,0.8c-0.4,0.2-0.9,0.3-1.4,0.3c-0.5,0-1-0.1-1.4-0.3
				c-0.4-0.2-0.8-0.5-1.1-0.8c-0.3-0.3-0.6-0.7-0.7-1.2C36.9,47.1,36.8,46.7,36.8,46.2z M37.9,46.2c0,0.6,0,1.1,0.1,1.6
				c0.1,0.4,0.2,0.8,0.4,1.1c0.2,0.3,0.4,0.5,0.7,0.7c0.3,0.1,0.7,0.2,1.1,0.2c0.4,0,0.8-0.1,1.1-0.2c0.3-0.1,0.5-0.4,0.7-0.7
				c0.2-0.3,0.3-0.7,0.4-1.1c0.1-0.4,0.1-1,0.1-1.6c0-0.5,0-0.9-0.1-1.3c-0.1-0.4-0.2-0.8-0.3-1.1c-0.2-0.3-0.4-0.6-0.7-0.8
				c-0.3-0.2-0.7-0.3-1.2-0.3c-0.5,0-0.9,0.1-1.2,0.3c-0.3,0.2-0.5,0.5-0.7,0.8c-0.2,0.3-0.3,0.7-0.3,1.1
				C38,45.3,37.9,45.7,37.9,46.2z"/>
		</g>
		<g>
			<path fill="#88bc08" d="M44.9,49.6h1.1v-6.8h-1.1v-0.1h2.1l3.4,5.4h0v-5.3h-1.1v-0.1h2.4v0.1h-1.1v7.1h-0.2l-4.2-6.7h0v6.4h1.1
				v0.1h-2.4V49.6z"/>
		</g>
		<g>
			<path fill="#88bc08" d="M55.3,49.6h1.1v-6.8h-1.1v-0.1h2.2l1.8,5.4h0l1.8-5.4h2.2v0.1h-1.1v6.8h1.1v0.1h-3.2v-0.1h1.1v-6.8h0
				L59,49.8l-2.4-6.9h0v6.7h1.1v0.1h-2.4V49.6z"/>
		</g>
		<g>
			<path fill="#88bc08" d="M64.7,49.6h1.1v-6.8h-1.1v-0.1h5.7v1.7h-0.1c-0.1-0.3-0.2-0.5-0.3-0.7c-0.1-0.2-0.2-0.4-0.4-0.5
				c-0.1-0.1-0.3-0.2-0.5-0.3c-0.2-0.1-0.4-0.1-0.7-0.1h-1.7v3.1h0.6c0.2,0,0.4,0,0.6-0.1c0.2,0,0.3-0.1,0.4-0.2
				c0.1-0.1,0.2-0.3,0.3-0.5c0.1-0.2,0.2-0.4,0.2-0.7H69v3.1h-0.1c0-0.2-0.1-0.4-0.1-0.6c-0.1-0.2-0.1-0.3-0.2-0.5
				c-0.1-0.1-0.2-0.3-0.4-0.3c-0.1-0.1-0.3-0.1-0.6-0.1h-0.8v3.6h1.9c0.4,0,0.7-0.1,0.9-0.2c0.2-0.2,0.4-0.3,0.6-0.6
				c0.2-0.2,0.3-0.4,0.3-0.7c0.1-0.2,0.1-0.4,0.1-0.6h0.1v2.2h-6.1V49.6z"/>
		</g>
		<g>
			<path fill="#88bc08" d="M72.2,49.6h1.1v-6.8h-1.1v-0.1h2.2l1.8,5.4h0l1.8-5.4h2.2v0.1h-1.1v6.8h1.1v0.1h-3.2v-0.1h1.1v-6.8h0
				l-2.4,6.9l-2.4-6.9h0v6.7h1.1v0.1h-2.4V49.6z"/>
		</g>
		<g>
			<path fill="#88bc08" d="M81.6,49.6h1.1v-6.8h-1.1v-0.1h5.7v1.7h-0.1c-0.1-0.3-0.2-0.5-0.3-0.7c-0.1-0.2-0.2-0.4-0.4-0.5
				c-0.1-0.1-0.3-0.2-0.5-0.3c-0.2-0.1-0.4-0.1-0.7-0.1h-1.7v3.1h0.6c0.2,0,0.4,0,0.6-0.1c0.2,0,0.3-0.1,0.4-0.2
				c0.1-0.1,0.2-0.3,0.3-0.5c0.1-0.2,0.2-0.4,0.2-0.7h0.1v3.1h-0.1c0-0.2-0.1-0.4-0.1-0.6c-0.1-0.2-0.1-0.3-0.2-0.5
				c-0.1-0.1-0.2-0.3-0.4-0.3c-0.1-0.1-0.3-0.1-0.6-0.1h-0.8v3.6h1.9c0.4,0,0.7-0.1,0.9-0.2c0.2-0.2,0.4-0.3,0.6-0.6
				c0.2-0.2,0.3-0.4,0.3-0.7c0.1-0.2,0.1-0.4,0.1-0.6h0.1v2.2h-6.1V49.6z"/>
		</g>
		<g>
			<path fill="#88bc08" d="M68.8,40.2C68.8,40.2,68.8,40.3,68.8,40.2l-1.6,1.7H67l0.7-1.6c0,0,0-0.1,0.2-0.1H68.8z"/>
		</g>
		<g>
			<path fill="#88bc08" d="M85.6,40.2C85.7,40.2,85.6,40.3,85.6,40.2l-1.6,1.7h-0.2l0.7-1.6c0,0,0-0.1,0.2-0.1H85.6z"/>
		</g>
		<g>
			
				<rect x="40.1" y="43.1" transform="matrix(0.8142 0.5806 -0.5806 0.8142 34.3617 -14.7913)" fill="#88bc08" width="0.3" height="6.4"/>
		</g>
	</g>
</g>
</svg>
