<?xml version="1.0" encoding="utf-8"?>
<!-- Generator: Adobe Illustrator 19.1.0, SVG Export Plug-In . SVG Version: 6.00 Build 0)  -->
<!DOCTYPE svg PUBLIC "-//W3C//DTD SVG 1.1//EN" "http://www.w3.org/Graphics/SVG/1.1/DTD/svg11.dtd">
<svg version="1.1" id="Layer_1" xmlns="http://www.w3.org/2000/svg" xmlns:xlink="http://www.w3.org/1999/xlink" x="0px" y="0px"
	 viewBox="0 0 88.3 46.3" enable-background="new 0 0 88.3 46.3" xml:space="preserve">
<g>
	<g>
		<path fill="#88BD40" d="M53,2.4l-8.6,12.2L35.9,2.4h-4.5v23.8h0v3.7h26.1v-3.7V2.4H53z M35.9,26.2V8.8l8.6,12.1L53,8.8v17.4H35.9z
			"/>
	</g>
	<g>
		<g>
			<path fill="#88BD40" d="M4.4,42.6h1.1v-6.8H4.4v-0.1h2.2L8.5,41h0l1.8-5.4h2.2v0.1h-1.1v6.8h1.1v0.1H9.4v-0.1h1.1v-6.8h0
				l-2.4,6.9l-2.4-6.9h0v6.7h1.1v0.1H4.4V42.6z"/>
		</g>
		<g>
			<path fill="#88BD40" d="M13.6,42.6h0.9l2.7-7.2h0.2l2.7,7.2H21v0.1H18v-0.1h1.1l-1-2.8h-2.3l-1,2.8h1.1v0.1h-2.1V42.6z
				 M16.9,36.8l-1.1,2.9H18L16.9,36.8z"/>
		</g>
		<g>
			<path fill="#88BD40" d="M22.3,42.6h1.1v-6.8h-1.1v-0.1h3.2v0.1h-1.1v6.8h1.1v0.1h-3.2V42.6z"/>
		</g>
		<g>
			<path fill="#88BD40" d="M26.9,40.6h0.1c0.1,0.4,0.2,0.7,0.3,0.9c0.1,0.2,0.2,0.4,0.4,0.6c0.1,0.2,0.3,0.3,0.4,0.4
				c0.2,0.1,0.3,0.2,0.5,0.2c0.2,0,0.3,0.1,0.5,0.1c0.1,0,0.3,0,0.4,0c0.4,0,0.6-0.1,0.9-0.2c0.2-0.1,0.4-0.2,0.5-0.4
				c0.1-0.2,0.2-0.3,0.3-0.5c0.1-0.2,0.1-0.4,0.1-0.5c0-0.2,0-0.4-0.1-0.6c-0.1-0.2-0.2-0.3-0.3-0.4c-0.1-0.1-0.3-0.2-0.4-0.3
				c-0.2-0.1-0.3-0.1-0.4-0.2l-1.1-0.3c-0.5-0.2-0.9-0.4-1.2-0.7c-0.3-0.3-0.4-0.6-0.4-1.1c0-0.3,0.1-0.6,0.2-0.8
				c0.1-0.3,0.3-0.5,0.4-0.7c0.2-0.2,0.4-0.3,0.7-0.4c0.3-0.1,0.6-0.2,0.9-0.2c0.2,0,0.4,0,0.6,0.1c0.2,0,0.3,0.1,0.4,0.1
				c0.1,0,0.2,0.1,0.3,0.1c0.1,0,0.2,0.1,0.3,0.1c0.1,0,0.1,0,0.2,0c0,0,0.1-0.1,0.1-0.2h0.1v1.8h-0.1c0-0.2-0.1-0.5-0.2-0.7
				c-0.1-0.2-0.2-0.4-0.4-0.6c-0.2-0.2-0.3-0.3-0.6-0.4c-0.2-0.1-0.5-0.2-0.8-0.2c-0.2,0-0.3,0-0.5,0.1c-0.2,0-0.4,0.1-0.5,0.2
				c-0.2,0.1-0.3,0.2-0.4,0.4c-0.1,0.2-0.2,0.4-0.2,0.7c0,0.2,0,0.4,0.1,0.5c0.1,0.1,0.2,0.3,0.3,0.4c0.1,0.1,0.3,0.2,0.5,0.3
				c0.2,0.1,0.3,0.1,0.5,0.2l1.2,0.4c0.1,0,0.3,0.1,0.5,0.2c0.2,0.1,0.4,0.2,0.6,0.3c0.2,0.1,0.3,0.3,0.5,0.5C32,40,32,40.2,32,40.6
				c0,0.3-0.1,0.6-0.2,0.9c-0.1,0.3-0.3,0.5-0.5,0.7c-0.2,0.2-0.5,0.4-0.8,0.5c-0.3,0.1-0.7,0.2-1.1,0.2c-0.1,0-0.3,0-0.4,0
				c-0.1,0-0.2,0-0.3,0c-0.1,0-0.2,0-0.3,0c-0.1,0-0.2,0-0.3-0.1c-0.1,0-0.3-0.1-0.4-0.1c-0.2-0.1-0.3-0.1-0.4-0.1
				c-0.1,0-0.2,0-0.2,0.1c0,0-0.1,0.1-0.1,0.2h-0.1V40.6z"/>
		</g>
		<g>
			<path fill="#88BD40" d="M33.6,39.2c0-0.5,0.1-1,0.3-1.5c0.2-0.5,0.5-0.8,0.8-1.2c0.3-0.3,0.7-0.6,1.1-0.8
				c0.4-0.2,0.8-0.3,1.2-0.3c0.4,0,0.9,0.1,1.3,0.3c0.4,0.2,0.8,0.5,1.1,0.8c0.3,0.3,0.6,0.7,0.8,1.2c0.2,0.5,0.3,0.9,0.3,1.5
				c0,0.5-0.1,0.9-0.3,1.4c-0.2,0.4-0.4,0.8-0.7,1.2c-0.3,0.3-0.7,0.6-1.1,0.8c-0.4,0.2-0.9,0.3-1.4,0.3c-0.5,0-1-0.1-1.4-0.3
				c-0.4-0.2-0.8-0.5-1.1-0.8c-0.3-0.3-0.6-0.7-0.7-1.2C33.7,40.2,33.6,39.7,33.6,39.2z M34.7,39.2c0,0.6,0,1.1,0.1,1.6
				c0.1,0.4,0.2,0.8,0.4,1.1c0.2,0.3,0.4,0.5,0.7,0.7c0.3,0.1,0.7,0.2,1.1,0.2c0.4,0,0.8-0.1,1.1-0.2c0.3-0.1,0.5-0.4,0.7-0.7
				c0.2-0.3,0.3-0.7,0.4-1.1c0.1-0.4,0.1-1,0.1-1.6c0-0.5,0-0.9-0.1-1.3c-0.1-0.4-0.2-0.8-0.3-1.1c-0.2-0.3-0.4-0.6-0.7-0.8
				c-0.3-0.2-0.7-0.3-1.2-0.3c-0.5,0-0.9,0.1-1.2,0.3c-0.3,0.2-0.5,0.5-0.7,0.8c-0.2,0.3-0.3,0.7-0.3,1.1
				C34.8,38.3,34.7,38.8,34.7,39.2z"/>
		</g>
		<g>
			<path fill="#88BD40" d="M41.8,42.6h1.1v-6.8h-1.1v-0.1h2.1l3.4,5.4h0v-5.3h-1.1v-0.1h2.4v0.1h-1.1v7.1h-0.2L43,36.2h0v6.4h1.1
				v0.1h-2.4V42.6z"/>
		</g>
		<g>
			<path fill="#88BD40" d="M52.1,42.6h1.1v-6.8h-1.1v-0.1h2.2l1.8,5.4h0l1.8-5.4h2.2v0.1h-1.1v6.8h1.1v0.1h-3.2v-0.1h1.1v-6.8h0
				l-2.4,6.9l-2.4-6.9h0v6.7h1.1v0.1h-2.4V42.6z"/>
		</g>
		<g>
			<path fill="#88BD40" d="M61.5,42.6h1.1v-6.8h-1.1v-0.1h5.7v1.7h-0.1c-0.1-0.3-0.2-0.5-0.3-0.7c-0.1-0.2-0.2-0.4-0.4-0.5
				c-0.1-0.1-0.3-0.2-0.5-0.3c-0.2-0.1-0.4-0.1-0.7-0.1h-1.7v3.1h0.6c0.2,0,0.4,0,0.6-0.1c0.2,0,0.3-0.1,0.4-0.2
				c0.1-0.1,0.2-0.3,0.3-0.5c0.1-0.2,0.2-0.4,0.2-0.7h0.1v3.1h-0.1c0-0.2-0.1-0.4-0.1-0.6c-0.1-0.2-0.1-0.3-0.2-0.5
				c-0.1-0.1-0.2-0.3-0.4-0.3c-0.1-0.1-0.3-0.1-0.6-0.1h-0.8v3.6h1.9c0.4,0,0.7-0.1,0.9-0.2c0.2-0.2,0.4-0.3,0.6-0.6
				c0.2-0.2,0.3-0.4,0.3-0.7c0.1-0.2,0.1-0.4,0.1-0.6h0.1v2.2h-6.1V42.6z"/>
		</g>
		<g>
			<path fill="#88BD40" d="M69,42.6h1.1v-6.8H69v-0.1h2.2l1.8,5.4h0l1.8-5.4h2.2v0.1h-1.1v6.8h1.1v0.1H74v-0.1h1.1v-6.8h0l-2.4,6.9
				l-2.4-6.9h0v6.7h1.1v0.1H69V42.6z"/>
		</g>
		<g>
			<path fill="#88BD40" d="M78.4,42.6h1.1v-6.8h-1.1v-0.1h5.7v1.7H84c-0.1-0.3-0.2-0.5-0.3-0.7c-0.1-0.2-0.2-0.4-0.4-0.5
				c-0.1-0.1-0.3-0.2-0.5-0.3c-0.2-0.1-0.4-0.1-0.7-0.1h-1.7v3.1h0.6c0.2,0,0.4,0,0.6-0.1c0.2,0,0.3-0.1,0.4-0.2
				c0.1-0.1,0.2-0.3,0.3-0.5c0.1-0.2,0.2-0.4,0.2-0.7h0.1v3.1h-0.1c0-0.2-0.1-0.4-0.1-0.6c-0.1-0.2-0.1-0.3-0.2-0.5
				c-0.1-0.1-0.2-0.3-0.4-0.3c-0.1-0.1-0.3-0.1-0.6-0.1h-0.8v3.6h1.9c0.4,0,0.7-0.1,0.9-0.2c0.2-0.2,0.4-0.3,0.6-0.6
				c0.2-0.2,0.3-0.4,0.3-0.7c0.1-0.2,0.1-0.4,0.1-0.6h0.1v2.2h-6.1V42.6z"/>
		</g>
		<g>
			<path fill="#88BD40" d="M65.6,33.2C65.6,33.2,65.6,33.3,65.6,33.2L64,34.9h-0.2l0.7-1.6c0,0,0-0.1,0.2-0.1H65.6z"/>
		</g>
		<g>
			<path fill="#88BD40" d="M82.4,33.2C82.5,33.2,82.4,33.3,82.4,33.2l-1.6,1.7h-0.2l0.7-1.6c0,0,0-0.1,0.2-0.1H82.4z"/>
		</g>
		<g>
			
				<rect x="36.9" y="36.1" transform="matrix(0.8142 0.5806 -0.5806 0.8142 29.7189 -14.2299)" fill="#88BD40" width="0.3" height="6.4"/>
		</g>
	</g>
</g>
</svg>
